<svg width="110" height="110" viewBox="0 0 110 110" fill="none" xmlns="http://www.w3.org/2000/svg">
<path d="M72.9356 71.4888C69.85 71.6668 66.7604 71.2152 63.8563 70.1618C60.9522 69.1084 58.2949 67.4754 56.0471 65.363C53.7993 63.2505 52.0086 60.7031 50.7846 57.877C49.5607 55.0509 48.9293 52.0056 48.9293 48.9278C48.9293 45.8501 49.5607 42.8048 50.7846 39.9786C52.0086 37.1525 53.7993 34.6051 56.0471 32.4926C58.2949 30.3802 60.9522 28.7472 63.8563 27.6938C66.7604 26.6404 69.85 26.1889 72.9356 26.3668C74.8843 26.3523 76.8255 26.6066 78.7041 27.1226C73.077 23.0893 66.3063 20.9452 59.3733 21.0011C52.4403 21.0569 45.7053 23.3099 40.1445 27.4334C34.5837 31.5568 30.4861 37.3366 28.4456 43.9348C26.405 50.533 26.5276 57.6069 28.7955 64.1311C31.0634 70.6553 35.3589 76.2908 41.0592 80.2208C46.7596 84.1508 53.5686 86.171 60.4994 85.9887C67.4302 85.8063 74.1226 83.4309 79.6066 79.2067C85.0906 74.9825 89.0812 69.129 91 62.4947C88.9029 65.2938 86.1768 67.5652 83.0399 69.127C79.9031 70.6889 76.4427 71.4977 72.9356 71.4888Z" fill="url(#paint0_linear_1_772)"/>
<defs>
<linearGradient id="paint0_linear_1_772" x1="59" y1="21" x2="59" y2="86" gradientUnits="userSpaceOnUse">
<stop stop-color="#FDC500"/>
<stop offset="1" stop-color="#FD8900"/>
</linearGradient>
</defs>
</svg>
