<svg width="116" height="109" viewBox="0 0 116 109" fill="none" xmlns="http://www.w3.org/2000/svg">
<path fill-rule="evenodd" clip-rule="evenodd" d="M94.5006 5.5C94.5006 2.46243 92.0382 0 89.0006 0C85.9631 0 83.5006 2.46243 83.5006 5.5V13.7227L77.6863 7.90837C75.5384 5.76049 72.056 5.76049 69.9082 7.90837C67.7603 10.0563 67.7603 13.5387 69.9082 15.6865L75.7224 21.5008L67.5 21.5008C64.4624 21.5008 62 23.9632 62 27.0008C62 30.0384 64.4624 32.5008 67.5 32.5008H75.7226L69.9083 38.3151C67.7604 40.463 67.7604 43.9454 69.9083 46.0933C72.0561 48.2412 75.5385 48.2412 77.6864 46.0933L83.5006 40.2791V48.5016C83.5006 51.5392 85.9631 54.0016 89.0006 54.0016C92.0382 54.0016 94.5006 51.5392 94.5006 48.5016V40.279L100.315 46.0933C102.463 48.2412 105.945 48.2412 108.093 46.0933C110.241 43.9454 110.241 40.463 108.093 38.3151L102.279 32.5008H110.502C113.539 32.5008 116.002 30.0384 116.002 27.0008C116.002 23.9632 113.539 21.5008 110.502 21.5008L102.279 21.5008L108.093 15.6865C110.241 13.5387 110.241 10.0563 108.093 7.90837C105.945 5.76049 102.463 5.76049 100.315 7.90837L94.5006 13.7227V5.5Z" fill="url(#paint0_linear_16_321)"/>
<g filter="url(#filter0_f_16_321)">
<ellipse cx="53.5" cy="77.5" rx="31.5" ry="9.5" fill="#4DB4FF"/>
</g>
<g filter="url(#filter1_bi_16_321)">
<path fill-rule="evenodd" clip-rule="evenodd" d="M77 40C77 40.7882 76.9696 41.5693 76.9099 42.3422C80.1949 39.6296 84.4071 38 89 38C99.4934 38 108 46.5066 108 57C108 67.158 100.029 75.4541 90 75.9741V76H89H19H17V75.896C7.44667 74.8966 0 66.8179 0 57C0 47.1618 7.47752 39.07 17.0593 38.0979C18.0405 22.4156 31.0704 10 47 10C63.5685 10 77 23.4315 77 40Z" fill="url(#paint1_linear_16_321)"/>
</g>
<path fill-rule="evenodd" clip-rule="evenodd" d="M41 51C42.3807 51 43.5 52.1193 43.5 53.5L43.5 68.5C43.5 69.8807 42.3807 71 41 71C39.6193 71 38.5 69.8807 38.5 68.5L38.5 53.5C38.5 52.1193 39.6193 51 41 51ZM67 56C68.3807 56 69.5 57.1193 69.5 58.5V86.5C69.5 87.8807 68.3807 89 67 89C65.6193 89 64.5 87.8807 64.5 86.5V58.5C64.5 57.1193 65.6193 56 67 56ZM54 63C55.3807 63 56.5 64.1193 56.5 65.5V74.5C56.5 75.8807 55.3807 77 54 77C52.6193 77 51.5 75.8807 51.5 74.5V65.5C51.5 64.1193 52.6193 63 54 63ZM54 83C55.3807 83 56.5 84.1193 56.5 85.5V103.5C56.5 104.881 55.3807 106 54 106C52.6193 106 51.5 104.881 51.5 103.5V85.5C51.5 84.1193 52.6193 83 54 83ZM69.5 96.5C69.5 95.1193 68.3807 94 67 94C65.6193 94 64.5 95.1193 64.5 96.5V103.5C64.5 104.881 65.6193 106 67 106C68.3807 106 69.5 104.881 69.5 103.5V96.5ZM82.5 70.5C82.5 69.1193 81.3807 68 80 68C78.6193 68 77.5 69.1193 77.5 70.5V77.5C77.5 78.8807 78.6193 80 80 80C81.3807 80 82.5 78.8807 82.5 77.5V70.5ZM80 86C81.3807 86 82.5 87.1193 82.5 88.5V103.5C82.5 104.881 81.3807 106 80 106C78.6193 106 77.5 104.881 77.5 103.5V88.5C77.5 87.1193 78.6193 86 80 86ZM43.5 78.5C43.5 77.1193 42.3807 76 41 76C39.6193 76 38.5 77.1193 38.5 78.5V85.5C38.5 86.8807 39.6193 88 41 88C42.3807 88 43.5 86.8807 43.5 85.5V78.5ZM43.5 96.5C43.5 95.1193 42.3807 94 41 94C39.6193 94 38.5 95.1193 38.5 96.5V103.5C38.5 104.881 39.6193 106 41 106C42.3807 106 43.5 104.881 43.5 103.5V96.5ZM27 61C28.3807 61 29.5 62.1193 29.5 63.5L29.5 71.5C29.5 72.8807 28.3807 74 27 74C25.6193 74 24.5 72.8807 24.5 71.5V63.5C24.5 62.1193 25.6193 61 27 61ZM29.5 83.5C29.5 82.1193 28.3807 81 27 81C25.6193 81 24.5 82.1193 24.5 83.5V103.5C24.5 104.881 25.6193 106 27 106C28.3807 106 29.5 104.881 29.5 103.5L29.5 83.5Z" fill="url(#paint2_linear_16_321)"/>
<path fill-rule="evenodd" clip-rule="evenodd" d="M56.0002 76H51.9998C51.686 75.5822 51.5 75.0628 51.5 74.5V65.5C51.5 64.1193 52.6193 63 54 63C55.3807 63 56.5 64.1193 56.5 65.5V74.5C56.5 75.0628 56.314 75.5822 56.0002 76ZM69.5 76H64.5V58.5C64.5 57.1193 65.6193 56 67 56C68.3807 56 69.5 57.1193 69.5 58.5V76ZM82.5 76H77.5V70.5C77.5 69.1193 78.6193 68 80 68C81.3807 68 82.5 69.1193 82.5 70.5V76ZM43.5 53.5C43.5 52.1193 42.3807 51 41 51C39.6193 51 38.5 52.1193 38.5 53.5L38.5 68.5C38.5 69.8807 39.6193 71 41 71C42.3807 71 43.5 69.8807 43.5 68.5L43.5 53.5ZM29.5 63.5C29.5 62.1193 28.3807 61 27 61C25.6193 61 24.5 62.1193 24.5 63.5V71.5C24.5 72.8807 25.6193 74 27 74C28.3807 74 29.5 72.8807 29.5 71.5L29.5 63.5Z" fill="#E0F3FE"/>
<defs>
<filter id="filter0_f_16_321" x="0" y="46" width="107" height="63" filterUnits="userSpaceOnUse" color-interpolation-filters="sRGB">
<feFlood flood-opacity="0" result="BackgroundImageFix"/>
<feBlend mode="normal" in="SourceGraphic" in2="BackgroundImageFix" result="shape"/>
<feGaussianBlur stdDeviation="11" result="effect1_foregroundBlur_16_321"/>
</filter>
<filter id="filter1_bi_16_321" x="-7" y="3" width="122" height="80" filterUnits="userSpaceOnUse" color-interpolation-filters="sRGB">
<feFlood flood-opacity="0" result="BackgroundImageFix"/>
<feGaussianBlur in="BackgroundImageFix" stdDeviation="3.5"/>
<feComposite in2="SourceAlpha" operator="in" result="effect1_backgroundBlur_16_321"/>
<feBlend mode="normal" in="SourceGraphic" in2="effect1_backgroundBlur_16_321" result="shape"/>
<feColorMatrix in="SourceAlpha" type="matrix" values="0 0 0 0 0 0 0 0 0 0 0 0 0 0 0 0 0 0 127 0" result="hardAlpha"/>
<feOffset dy="2"/>
<feGaussianBlur stdDeviation="4"/>
<feComposite in2="hardAlpha" operator="arithmetic" k2="-1" k3="1"/>
<feColorMatrix type="matrix" values="0 0 0 0 0 0 0 0 0 0.82 0 0 0 0 1 0 0 0 0.25 0"/>
<feBlend mode="normal" in2="shape" result="effect2_innerShadow_16_321"/>
</filter>
<linearGradient id="paint0_linear_16_321" x1="69.7089" y1="43.0727" x2="120.997" y2="-0.216315" gradientUnits="userSpaceOnUse">
<stop stop-color="#0056D6"/>
<stop offset="1" stop-color="#ADD8FF"/>
</linearGradient>
<linearGradient id="paint1_linear_16_321" x1="56" y1="99.5" x2="96.5" y2="10" gradientUnits="userSpaceOnUse">
<stop stop-color="#0082DF"/>
<stop offset="0.299998" stop-color="#48B2FF" stop-opacity="0.75"/>
<stop offset="1" stop-color="#3BADFF" stop-opacity="0"/>
</linearGradient>
<linearGradient id="paint2_linear_16_321" x1="53.5" y1="51" x2="53.5" y2="106" gradientUnits="userSpaceOnUse">
<stop offset="0.168182" stop-color="#D7F0FF"/>
<stop offset="1" stop-color="#0072DC"/>
</linearGradient>
</defs>
</svg>
