<svg width="115" height="109" viewBox="0 0 115 109" fill="none" xmlns="http://www.w3.org/2000/svg">
<path fill-rule="evenodd" clip-rule="evenodd" d="M93.5006 5.5C93.5006 2.46243 91.0382 0 88.0006 0C84.9631 0 82.5006 2.46243 82.5006 5.5V13.7227L76.6863 7.90837C74.5384 5.76049 71.056 5.76049 68.9082 7.90837C66.7603 10.0563 66.7603 13.5387 68.9082 15.6865L74.7224 21.5008L66.5 21.5008C63.4624 21.5008 61 23.9632 61 27.0008C61 30.0384 63.4624 32.5008 66.5 32.5008H74.7226L68.9083 38.3151C66.7604 40.463 66.7604 43.9454 68.9083 46.0933C71.0561 48.2412 74.5385 48.2412 76.6864 46.0933L82.5006 40.2791V48.5016C82.5006 51.5392 84.9631 54.0016 88.0006 54.0016C91.0382 54.0016 93.5006 51.5392 93.5006 48.5016V40.279L99.3149 46.0933C101.463 48.2412 104.945 48.2412 107.093 46.0933C109.241 43.9454 109.241 40.463 107.093 38.3151L101.279 32.5008H109.502C112.539 32.5008 115.002 30.0384 115.002 27.0008C115.002 23.9632 112.539 21.5008 109.502 21.5008L101.279 21.5008L107.093 15.6865C109.241 13.5387 109.241 10.0563 107.093 7.90837C104.945 5.76049 101.463 5.76049 99.315 7.90837L93.5006 13.7227V5.5Z" fill="url(#paint0_linear_16_272)"/>
<g filter="url(#filter0_f_16_272)">
<ellipse cx="53.5" cy="77.5" rx="31.5" ry="9.5" fill="#4DB4FF"/>
</g>
<g filter="url(#filter1_bi_16_272)">
<path fill-rule="evenodd" clip-rule="evenodd" d="M77 40C77 40.7882 76.9696 41.5693 76.9099 42.3422C80.1949 39.6296 84.4071 38 89 38C99.4934 38 108 46.5066 108 57C108 67.158 100.029 75.4541 90 75.9741V76H89H19H17V75.896C7.44667 74.8966 0 66.8179 0 57C0 47.1618 7.47752 39.07 17.0593 38.0979C18.0405 22.4156 31.0704 10 47 10C63.5685 10 77 23.4315 77 40Z" fill="url(#paint1_linear_16_272)"/>
</g>
<path fill-rule="evenodd" clip-rule="evenodd" d="M33.2648 62.6324C33.2648 64.6385 31.6385 66.2648 29.6324 66.2648C27.6263 66.2648 26 64.6385 26 62.6324C26 60.6263 27.6263 59 29.6324 59C31.6385 59 33.2648 60.6263 33.2648 62.6324ZM33.2648 75.8972C33.2648 77.9033 31.6385 79.5295 29.6324 79.5295C27.6263 79.5295 26 77.9033 26 75.8972C26 73.891 27.6263 72.2648 29.6324 72.2648C31.6385 72.2648 33.2648 73.891 33.2648 75.8972ZM29.6324 92.7943C31.6385 92.7943 33.2648 91.168 33.2648 89.1619C33.2648 87.1558 31.6385 85.5295 29.6324 85.5295C27.6263 85.5295 26 87.1558 26 89.1619C26 91.168 27.6263 92.7943 29.6324 92.7943ZM33.2648 102.427C33.2648 104.433 31.6385 106.059 29.6324 106.059C27.6263 106.059 26 104.433 26 102.427C26 100.421 27.6263 98.7943 29.6324 98.7943C31.6385 98.7943 33.2648 100.421 33.2648 102.427ZM45.897 66.2648C47.9032 66.2648 49.5294 64.6385 49.5294 62.6324C49.5294 60.6263 47.9032 59 45.897 59C43.8909 59 42.2646 60.6263 42.2646 62.6324C42.2646 64.6385 43.8909 66.2648 45.897 66.2648ZM49.5294 75.8972C49.5294 77.9033 47.9032 79.5295 45.897 79.5295C43.8909 79.5295 42.2646 77.9033 42.2646 75.8972C42.2646 73.891 43.8909 72.2648 45.897 72.2648C47.9032 72.2648 49.5294 73.891 49.5294 75.8972ZM45.897 92.7943C47.9032 92.7943 49.5294 91.168 49.5294 89.1619C49.5294 87.1558 47.9032 85.5295 45.897 85.5295C43.8909 85.5295 42.2646 87.1558 42.2646 89.1619C42.2646 91.168 43.8909 92.7943 45.897 92.7943ZM49.5294 102.427C49.5294 104.433 47.9032 106.059 45.897 106.059C43.8909 106.059 42.2646 104.433 42.2646 102.427C42.2646 100.421 43.8909 98.7943 45.897 98.7943C47.9032 98.7943 49.5294 100.421 49.5294 102.427ZM62.1619 66.2648C64.168 66.2648 65.7943 64.6385 65.7943 62.6324C65.7943 60.6263 64.168 59 62.1619 59C60.1558 59 58.5295 60.6263 58.5295 62.6324C58.5295 64.6385 60.1558 66.2648 62.1619 66.2648ZM65.7943 75.8972C65.7943 77.9033 64.168 79.5295 62.1619 79.5295C60.1558 79.5295 58.5295 77.9033 58.5295 75.8972C58.5295 73.891 60.1558 72.2648 62.1619 72.2648C64.168 72.2648 65.7943 73.891 65.7943 75.8972ZM62.1619 92.7943C64.168 92.7943 65.7943 91.168 65.7943 89.1619C65.7943 87.1558 64.168 85.5295 62.1619 85.5295C60.1558 85.5295 58.5295 87.1558 58.5295 89.1619C58.5295 91.168 60.1558 92.7943 62.1619 92.7943ZM65.7943 102.427C65.7943 104.433 64.168 106.059 62.1619 106.059C60.1558 106.059 58.5295 104.433 58.5295 102.427C58.5295 100.421 60.1558 98.7943 62.1619 98.7943C64.168 98.7943 65.7943 100.421 65.7943 102.427ZM78.4267 66.2648C80.4328 66.2648 82.0591 64.6385 82.0591 62.6324C82.0591 60.6263 80.4328 59 78.4267 59C76.4206 59 74.7943 60.6263 74.7943 62.6324C74.7943 64.6385 76.4206 66.2648 78.4267 66.2648ZM82.0591 75.8972C82.0591 77.9033 80.4328 79.5295 78.4267 79.5295C76.4206 79.5295 74.7943 77.9033 74.7943 75.8972C74.7943 73.891 76.4206 72.2648 78.4267 72.2648C80.4328 72.2648 82.0591 73.891 82.0591 75.8972ZM78.4267 92.7943C80.4328 92.7943 82.0591 91.168 82.0591 89.1619C82.0591 87.1558 80.4328 85.5295 78.4267 85.5295C76.4206 85.5295 74.7943 87.1558 74.7943 89.1619C74.7943 91.168 76.4206 92.7943 78.4267 92.7943ZM82.0591 102.427C82.0591 104.433 80.4328 106.059 78.4267 106.059C76.4206 106.059 74.7943 104.433 74.7943 102.427C74.7943 100.421 76.4206 98.7943 78.4267 98.7943C80.4328 98.7943 82.0591 100.421 82.0591 102.427Z" fill="url(#paint2_linear_16_272)"/>
<path fill-rule="evenodd" clip-rule="evenodd" d="M33.2633 76H26.0014C26.0005 75.9658 26 75.9315 26 75.8972C26 73.891 27.6263 72.2648 29.6324 72.2648C31.6385 72.2648 33.2648 73.891 33.2648 75.8972C33.2648 75.9315 33.2643 75.9658 33.2633 76ZM49.528 76H42.2661C42.2651 75.9658 42.2646 75.9315 42.2646 75.8972C42.2646 73.891 43.8909 72.2648 45.897 72.2648C47.9032 72.2648 49.5294 73.891 49.5294 75.8972C49.5294 75.9315 49.5289 75.9658 49.528 76ZM65.7929 76H58.531C58.53 75.9658 58.5295 75.9315 58.5295 75.8972C58.5295 73.891 60.1558 72.2648 62.1619 72.2648C64.168 72.2648 65.7943 73.891 65.7943 75.8972C65.7943 75.9315 65.7938 75.9658 65.7929 76ZM82.0576 76H74.7957C74.7948 75.9658 74.7943 75.9315 74.7943 75.8972C74.7943 73.891 76.4206 72.2648 78.4267 72.2648C80.4328 72.2648 82.0591 73.891 82.0591 75.8972C82.0591 75.9315 82.0586 75.9658 82.0576 76ZM29.6324 66.2648C31.6385 66.2648 33.2648 64.6385 33.2648 62.6324C33.2648 60.6263 31.6385 59 29.6324 59C27.6263 59 26 60.6263 26 62.6324C26 64.6385 27.6263 66.2648 29.6324 66.2648ZM49.5294 62.6324C49.5294 64.6385 47.9032 66.2648 45.897 66.2648C43.8909 66.2648 42.2646 64.6385 42.2646 62.6324C42.2646 60.6263 43.8909 59 45.897 59C47.9032 59 49.5294 60.6263 49.5294 62.6324ZM65.7943 62.6324C65.7943 64.6385 64.168 66.2648 62.1619 66.2648C60.1558 66.2648 58.5295 64.6385 58.5295 62.6324C58.5295 60.6263 60.1558 59 62.1619 59C64.168 59 65.7943 60.6263 65.7943 62.6324ZM82.0591 62.6324C82.0591 64.6385 80.4328 66.2648 78.4267 66.2648C76.4206 66.2648 74.7943 64.6385 74.7943 62.6324C74.7943 60.6263 76.4206 59 78.4267 59C80.4328 59 82.0591 60.6263 82.0591 62.6324Z" fill="#E0F3FE"/>
<defs>
<filter id="filter0_f_16_272" x="0" y="46" width="107" height="63" filterUnits="userSpaceOnUse" color-interpolation-filters="sRGB">
<feFlood flood-opacity="0" result="BackgroundImageFix"/>
<feBlend mode="normal" in="SourceGraphic" in2="BackgroundImageFix" result="shape"/>
<feGaussianBlur stdDeviation="11" result="effect1_foregroundBlur_16_272"/>
</filter>
<filter id="filter1_bi_16_272" x="-7" y="3" width="122" height="80" filterUnits="userSpaceOnUse" color-interpolation-filters="sRGB">
<feFlood flood-opacity="0" result="BackgroundImageFix"/>
<feGaussianBlur in="BackgroundImageFix" stdDeviation="3.5"/>
<feComposite in2="SourceAlpha" operator="in" result="effect1_backgroundBlur_16_272"/>
<feBlend mode="normal" in="SourceGraphic" in2="effect1_backgroundBlur_16_272" result="shape"/>
<feColorMatrix in="SourceAlpha" type="matrix" values="0 0 0 0 0 0 0 0 0 0 0 0 0 0 0 0 0 0 127 0" result="hardAlpha"/>
<feOffset dy="2"/>
<feGaussianBlur stdDeviation="4"/>
<feComposite in2="hardAlpha" operator="arithmetic" k2="-1" k3="1"/>
<feColorMatrix type="matrix" values="0 0 0 0 0 0 0 0 0 0.82 0 0 0 0 1 0 0 0 0.25 0"/>
<feBlend mode="normal" in2="shape" result="effect2_innerShadow_16_272"/>
</filter>
<linearGradient id="paint0_linear_16_272" x1="68.7089" y1="43.0727" x2="119.997" y2="-0.216315" gradientUnits="userSpaceOnUse">
<stop stop-color="#0056D6"/>
<stop offset="1" stop-color="#ADD8FF"/>
</linearGradient>
<linearGradient id="paint1_linear_16_272" x1="56" y1="99.5" x2="96.5" y2="10" gradientUnits="userSpaceOnUse">
<stop stop-color="#0082DF"/>
<stop offset="0.299998" stop-color="#48B2FF" stop-opacity="0.75"/>
<stop offset="1" stop-color="#3BADFF" stop-opacity="0"/>
</linearGradient>
<linearGradient id="paint2_linear_16_272" x1="54.0295" y1="59" x2="54.0295" y2="106.059" gradientUnits="userSpaceOnUse">
<stop stop-color="#D7F0FF"/>
<stop offset="1" stop-color="#0072DC"/>
</linearGradient>
</defs>
</svg>
